<?xml version="1.0" encoding="utf-8"?>
<!-- Generator: Adobe Illustrator 24.0.1, SVG Export Plug-In . SVG Version: 6.00 Build 0)  -->
<svg version="1.1" id="レイヤー_1" xmlns="http://www.w3.org/2000/svg" xmlns:xlink="http://www.w3.org/1999/xlink" x="0px"
	 y="0px" viewBox="0 0 512 512" style="enable-background:new 0 0 512 512;" xml:space="preserve">
<path d="M160.53,477.17c193.21,0,298.89-160.07,298.89-298.89c0-4.55,0-9.07-0.31-13.58c20.56-14.87,38.3-33.28,52.41-54.37
	c-19.17,8.5-39.51,14.07-60.33,16.53c21.93-13.13,38.34-33.78,46.18-58.1c-20.62,12.24-43.18,20.86-66.7,25.5
	c-39.78-42.3-106.32-44.34-148.63-4.56c-27.28,25.66-38.86,63.89-30.39,100.37c-84.46-4.23-163.15-44.13-216.49-109.75
	c-27.88,48-13.64,109.4,32.52,140.23c-16.72-0.5-33.07-5.01-47.68-13.15c0,0.43,0,0.88,0,1.33c0.01,50,35.26,93.07,84.28,102.97
	c-15.47,4.22-31.69,4.83-47.43,1.8c13.76,42.79,53.2,72.11,98.14,72.95c-37.2,29.23-83.15,45.1-130.46,45.06
	c-8.36-0.02-16.71-0.52-25.01-1.52c48.04,30.83,103.93,47.18,161.01,47.1"/>
</svg>
