<?xml version="1.0" encoding="utf-8"?>
<!-- Generator: Adobe Illustrator 24.0.1, SVG Export Plug-In . SVG Version: 6.00 Build 0)  -->
<svg version="1.1" id="livetype" xmlns="http://www.w3.org/2000/svg" xmlns:xlink="http://www.w3.org/1999/xlink" x="0px" y="0px"
	 viewBox="0 0 200 66.85" style="enable-background:new 0 0 200 66.85;" xml:space="preserve">
<style type="text/css">
	.st0{fill:#A6A6A6;}
	.st1{fill:#FFFFFF;}
</style>
<title>Download_on_the_App_Store_Badge_US-UK_RGB_blk_4SVG_092917</title>
<g>
	<g>
		<g>
			<path class="st0" d="M184.07,0H15.94c-0.61,0-1.22,0-1.83,0c-0.51,0-1.02,0.01-1.54,0.02c-1.12,0.01-2.24,0.11-3.35,0.3
				C8.12,0.51,7.04,0.86,6.04,1.37c-1,0.51-1.91,1.18-2.71,1.97c-0.8,0.79-1.46,1.71-1.97,2.71c-0.51,1-0.86,2.07-1.04,3.18
				c-0.19,1.11-0.29,2.22-0.3,3.35C0.01,13.09,0.01,13.6,0,14.11v38.63c0.01,0.52,0.01,1.02,0.03,1.54c0.01,1.12,0.11,2.24,0.3,3.35
				c0.18,1.11,0.54,2.18,1.04,3.18c0.51,1,1.17,1.91,1.97,2.7c0.79,0.8,1.7,1.46,2.71,1.97c1,0.51,2.07,0.86,3.18,1.05
				c1.11,0.18,2.23,0.28,3.35,0.3c0.52,0.01,1.02,0.02,1.54,0.02c0.61,0,1.22,0,1.83,0h168.14c0.6,0,1.21,0,1.81,0
				c0.51,0,1.03-0.01,1.54-0.02c1.12-0.01,2.24-0.11,3.34-0.3c1.11-0.19,2.18-0.55,3.19-1.05c1-0.51,1.91-1.17,2.7-1.97
				c0.8-0.79,1.46-1.7,1.97-2.7c0.5-1,0.85-2.08,1.03-3.18c0.19-1.11,0.29-2.22,0.31-3.35c0.01-0.52,0.01-1.02,0.01-1.54
				c0.01-0.61,0.01-1.21,0.01-1.83V15.94c0-0.61,0-1.22-0.01-1.82c0-0.51,0-1.03-0.01-1.54c-0.02-1.12-0.12-2.24-0.31-3.35
				c-0.18-1.11-0.53-2.18-1.03-3.18c-1.03-2.01-2.67-3.65-4.68-4.68c-1.01-0.51-2.08-0.86-3.19-1.05c-1.1-0.18-2.22-0.28-3.34-0.3
				c-0.51-0.01-1.03-0.02-1.54-0.02C185.28,0,184.67,0,184.07,0L184.07,0z"/>
			<path d="M14.11,65.39c-0.51,0-1.01-0.01-1.51-0.02c-1.05-0.01-2.09-0.1-3.12-0.27c-0.96-0.17-1.9-0.47-2.77-0.92
				c-0.86-0.44-1.65-1.01-2.33-1.7c-0.69-0.68-1.27-1.47-1.71-2.33c-0.44-0.87-0.75-1.81-0.91-2.77c-0.17-1.04-0.26-2.08-0.28-3.13
				c-0.01-0.35-0.02-1.53-0.02-1.53V14.11c0,0,0.01-1.16,0.02-1.5c0.01-1.05,0.11-2.09,0.28-3.13c0.16-0.97,0.47-1.9,0.91-2.78
				c0.44-0.87,1.01-1.65,1.7-2.34c0.69-0.69,1.48-1.27,2.34-1.71c0.87-0.44,1.8-0.75,2.76-0.91c1.04-0.17,2.08-0.26,3.13-0.27
				l1.51-0.02h171.76l1.53,0.02c1.04,0.01,2.08,0.1,3.11,0.27c0.97,0.16,1.91,0.47,2.79,0.92c1.73,0.89,3.15,2.31,4.04,4.04
				c0.44,0.87,0.74,1.8,0.89,2.76c0.17,1.04,0.27,2.1,0.29,3.15c0,0.47,0,0.98,0,1.49c0.01,0.63,0.01,1.22,0.01,1.82v34.98
				c0,0.61,0,1.2-0.01,1.8c0,0.54,0,1.04-0.01,1.55c-0.02,1.04-0.11,2.07-0.29,3.1c-0.16,0.97-0.46,1.91-0.9,2.79
				c-0.44,0.86-1.01,1.64-1.7,2.32c-0.68,0.69-1.47,1.27-2.34,1.71c-0.88,0.44-1.82,0.75-2.79,0.92c-1.03,0.17-2.08,0.26-3.12,0.27
				c-0.49,0.01-1,0.02-1.5,0.02l-1.81,0L14.11,65.39z"/>
		</g>
		<g id="_Group_">
			<g id="_Group_2">
				<g id="_Group_3">
					<path id="_Path_" class="st1" d="M41.4,33.93c0.04-2.84,1.52-5.45,3.94-6.94c-1.53-2.19-4-3.52-6.67-3.61
						c-2.81-0.29-5.53,1.68-6.96,1.68c-1.46,0-3.66-1.65-6.03-1.6c-3.12,0.1-5.96,1.83-7.48,4.56c-3.23,5.6-0.82,13.82,2.28,18.34
						c1.55,2.22,3.36,4.69,5.73,4.6c2.32-0.1,3.18-1.48,5.98-1.48c2.77,0,3.58,1.48,6,1.42c2.49-0.04,4.05-2.22,5.55-4.46
						c1.11-1.58,1.97-3.32,2.54-5.17C43.32,40.03,41.4,37.14,41.4,33.93z"/>
					<path id="_Path_2" class="st1" d="M36.83,20.41c1.36-1.63,2.02-3.72,1.86-5.83c-2.07,0.22-3.99,1.21-5.36,2.77
						c-1.36,1.54-2.05,3.57-1.91,5.62C33.52,22.99,35.52,22.05,36.83,20.41z"/>
				</g>
			</g>
			<g>
				<path class="st1" d="M70.7,45.36h-7.91l-1.9,5.61h-3.35l7.49-20.75h3.48l7.49,20.75H72.6L70.7,45.36z M63.61,42.77h6.27
					l-3.09-9.1H66.7L63.61,42.77z"/>
				<path class="st1" d="M92.19,43.4c0,4.7-2.52,7.72-6.31,7.72c-1.96,0.1-3.81-0.93-4.76-2.65h-0.07v7.49h-3.11V35.84h3.01v2.52H81
					c0.99-1.71,2.84-2.74,4.82-2.68C89.66,35.68,92.19,38.72,92.19,43.4z M89,43.4c0-3.06-1.58-5.08-4-5.08
					c-2.37,0-3.97,2.06-3.97,5.08c0,3.05,1.6,5.09,3.97,5.09C87.42,48.5,89,46.5,89,43.4z"/>
				<path class="st1" d="M108.85,43.4c0,4.7-2.52,7.72-6.31,7.72c-1.96,0.1-3.81-0.93-4.76-2.65H97.7v7.49h-3.11V35.84h3.01v2.52
					h0.06c0.99-1.71,2.84-2.74,4.82-2.68C106.31,35.68,108.85,38.72,108.85,43.4z M105.65,43.4c0-3.06-1.58-5.08-4-5.08
					c-2.37,0-3.97,2.06-3.97,5.08c0,3.05,1.6,5.09,3.97,5.09C104.07,48.5,105.65,46.5,105.65,43.4L105.65,43.4z"/>
				<path class="st1" d="M119.85,45.19c0.23,2.06,2.23,3.41,4.96,3.41c2.62,0,4.5-1.35,4.5-3.21c0-1.61-1.14-2.58-3.83-3.24
					l-2.69-0.65c-3.81-0.92-5.58-2.7-5.58-5.6c0-3.58,3.12-6.04,7.55-6.04c4.39,0,7.39,2.46,7.49,6.04h-3.14
					c-0.19-2.07-1.9-3.32-4.4-3.32s-4.21,1.26-4.21,3.11c0,1.47,1.09,2.33,3.77,2.99l2.29,0.56c4.26,1.01,6.03,2.72,6.03,5.75
					c0,3.88-3.09,6.31-8.01,6.31c-4.6,0-7.71-2.37-7.91-6.13L119.85,45.19z"/>
				<path class="st1" d="M139.3,32.26v3.58h2.88v2.46h-2.88v8.34c0,1.3,0.58,1.9,1.84,1.9c0.34-0.01,0.68-0.03,1.02-0.07v2.44
					c-0.57,0.11-1.15,0.15-1.73,0.14c-3.06,0-4.26-1.15-4.26-4.09V38.3h-2.2v-2.46h2.2v-3.58H139.3z"/>
				<path class="st1" d="M143.84,43.4c0-4.76,2.8-7.75,7.18-7.75c4.39,0,7.18,2.99,7.18,7.75c0,4.77-2.78,7.75-7.18,7.75
					C146.62,51.16,143.84,48.18,143.84,43.4z M155.03,43.4c0-3.27-1.5-5.19-4.01-5.19c-2.52,0-4.01,1.94-4.01,5.19
					c0,3.28,1.5,5.19,4.01,5.19C153.54,48.6,155.03,46.68,155.03,43.4L155.03,43.4z"/>
				<path class="st1" d="M160.76,35.84h2.96v2.58h0.07c0.41-1.66,1.93-2.8,3.64-2.73c0.36,0,0.71,0.04,1.06,0.12v2.91
					c-0.45-0.14-0.92-0.2-1.4-0.19c-1.73-0.07-3.18,1.27-3.25,3c-0.01,0.16,0,0.32,0.02,0.48v8.98h-3.11L160.76,35.84z"/>
				<path class="st1" d="M182.82,46.53c-0.42,2.75-3.09,4.63-6.52,4.63c-4.4,0-7.13-2.95-7.13-7.68c0-4.75,2.75-7.82,7-7.82
					c4.19,0,6.82,2.88,6.82,7.46v1.06H172.3v0.19c-0.19,2.17,1.41,4.08,3.58,4.27c0.16,0.01,0.33,0.02,0.49,0.01
					c1.51,0.14,2.93-0.72,3.49-2.13L182.82,46.53z M172.32,42.01h7.57c0.11-2.01-1.42-3.72-3.43-3.84c-0.09-0.01-0.19-0.01-0.28,0
					c-2.12-0.01-3.84,1.69-3.85,3.81C172.32,41.99,172.32,42,172.32,42.01z"/>
			</g>
		</g>
	</g>
	<g id="_Group_4">
		<g>
			<path class="st1" d="M63.22,14.59c2.43-0.17,4.54,1.65,4.72,4.08c0.02,0.29,0.01,0.58-0.02,0.87c0,3.19-1.72,5.02-4.69,5.02h-3.6
				v-9.97H63.22z M61.17,23.15h1.88c1.73,0.1,3.21-1.21,3.32-2.94c0.01-0.22,0-0.43-0.03-0.64c0.24-1.72-0.97-3.31-2.69-3.54
				c-0.2-0.03-0.4-0.04-0.6-0.02h-1.88V23.15z"/>
			<path class="st1" d="M69.66,20.8c-0.19-1.96,1.25-3.7,3.21-3.89c1.96-0.19,3.7,1.25,3.89,3.21c0.02,0.23,0.02,0.45,0,0.68
				c0.19,1.96-1.24,3.7-3.2,3.89c-1.96,0.19-3.7-1.24-3.89-3.2C69.64,21.26,69.64,21.03,69.66,20.8z M75.23,20.8
				c0-1.63-0.73-2.59-2.02-2.59c-1.29,0-2.02,0.95-2.02,2.59c0,1.64,0.73,2.59,2.02,2.59C74.5,23.39,75.23,22.44,75.23,20.8
				L75.23,20.8z"/>
			<path class="st1" d="M86.2,24.57h-1.54l-1.56-5.54h-0.12l-1.55,5.54h-1.53l-2.07-7.53h1.51l1.35,5.74h0.11l1.55-5.74h1.42
				l1.55,5.74h0.12l1.34-5.74h1.49L86.2,24.57z"/>
			<path class="st1" d="M90.01,17.04h1.43v1.2h0.11c0.39-0.88,1.29-1.42,2.25-1.34c1.35-0.1,2.52,0.91,2.62,2.26
				c0.01,0.18,0.01,0.36-0.02,0.54v4.87h-1.49v-4.5c0-1.21-0.53-1.81-1.62-1.81c-0.95-0.04-1.76,0.69-1.8,1.64
				c0,0.09,0,0.18,0.01,0.26v4.4h-1.49L90.01,17.04z"/>
			<path class="st1" d="M98.77,14.1h1.49v10.46h-1.49V14.1z"/>
			<path class="st1" d="M102.32,20.8c-0.19-1.96,1.25-3.7,3.21-3.89c1.96-0.19,3.7,1.25,3.89,3.21c0.02,0.23,0.02,0.45,0,0.68
				c0.19,1.96-1.24,3.7-3.2,3.89c-1.96,0.19-3.7-1.24-3.89-3.2C102.29,21.26,102.29,21.03,102.32,20.8z M107.89,20.8
				c0-1.63-0.73-2.59-2.02-2.59c-1.29,0-2.02,0.95-2.02,2.59c0,1.64,0.73,2.59,2.02,2.59C107.15,23.39,107.89,22.44,107.89,20.8z"/>
			<path class="st1" d="M110.98,22.44c0-1.35,1.01-2.14,2.8-2.25l2.04-0.12v-0.65c0-0.79-0.53-1.24-1.54-1.24
				c-0.83,0-1.4,0.3-1.57,0.84h-1.44c0.15-1.29,1.37-2.12,3.08-2.12c1.89,0,2.95,0.94,2.95,2.53v5.14h-1.43v-1.06h-0.12
				c-0.49,0.77-1.35,1.22-2.26,1.18c-1.25,0.13-2.37-0.78-2.5-2.03C110.98,22.59,110.98,22.51,110.98,22.44z M115.82,21.79v-0.63
				l-1.84,0.12c-1.04,0.07-1.51,0.42-1.51,1.09c0,0.68,0.59,1.07,1.4,1.07c0.97,0.1,1.85-0.61,1.94-1.59
				C115.81,21.83,115.82,21.81,115.82,21.79z"/>
			<path class="st1" d="M119.25,20.8c0-2.38,1.22-3.88,3.12-3.88c0.96-0.04,1.86,0.47,2.31,1.32h0.11V14.1h1.49v10.46h-1.42v-1.19
				h-0.12c-0.48,0.84-1.39,1.35-2.36,1.31C120.46,24.69,119.25,23.18,119.25,20.8z M120.78,20.8c0,1.6,0.75,2.56,2.01,2.56
				c1.25,0,2.03-0.97,2.03-2.55c0-1.57-0.78-2.56-2.03-2.56C121.54,18.25,120.78,19.22,120.78,20.8L120.78,20.8z"/>
			<path class="st1" d="M132.42,20.8c-0.19-1.96,1.25-3.7,3.21-3.89c1.96-0.19,3.7,1.25,3.89,3.21c0.02,0.23,0.02,0.45,0,0.68
				c0.19,1.96-1.24,3.7-3.2,3.89c-1.96,0.19-3.7-1.24-3.89-3.2C132.4,21.26,132.4,21.03,132.42,20.8z M137.99,20.8
				c0-1.63-0.73-2.59-2.02-2.59c-1.29,0-2.02,0.95-2.02,2.59c0,1.64,0.73,2.59,2.02,2.59C137.26,23.39,137.99,22.44,137.99,20.8z"/>
			<path class="st1" d="M141.51,17.04h1.43v1.2h0.11c0.39-0.88,1.29-1.42,2.25-1.34c1.35-0.1,2.52,0.91,2.62,2.26
				c0.01,0.18,0.01,0.36-0.02,0.54v4.87h-1.49v-4.5c0-1.21-0.53-1.81-1.62-1.81c-0.95-0.04-1.76,0.69-1.8,1.64
				c0,0.09,0,0.18,0.01,0.26v4.4h-1.49V17.04z"/>
			<path class="st1" d="M156.3,15.17v1.91h1.63v1.25h-1.63v3.87c0,0.79,0.32,1.13,1.06,1.13c0.19,0,0.38-0.01,0.57-0.03v1.24
				c-0.27,0.05-0.54,0.07-0.81,0.08c-1.65,0-2.31-0.58-2.31-2.03v-4.25h-1.19v-1.25h1.19v-1.91H156.3z"/>
			<path class="st1" d="M159.96,14.1h1.47v4.15h0.12c0.4-0.89,1.32-1.43,2.29-1.35c1.37-0.07,2.54,0.97,2.61,2.34
				c0.01,0.16,0,0.31-0.02,0.46v4.86h-1.49v-4.49c0-1.2-0.56-1.81-1.61-1.81c-0.97-0.08-1.82,0.64-1.9,1.61
				c-0.01,0.1-0.01,0.2,0,0.3v4.4h-1.49L159.96,14.1z"/>
			<path class="st1" d="M175.09,22.53c-0.42,1.42-1.79,2.34-3.26,2.18c-1.89,0.05-3.46-1.44-3.51-3.33c0-0.19,0.01-0.37,0.03-0.56
				c-0.25-1.9,1.08-3.65,2.98-3.9c0.16-0.02,0.33-0.03,0.49-0.03c2.09,0,3.36,1.43,3.36,3.79v0.52h-5.31v0.08
				c-0.09,1.09,0.72,2.06,1.82,2.15c0.06,0.01,0.13,0.01,0.19,0.01c0.73,0.09,1.43-0.27,1.79-0.91L175.09,22.53z M169.87,20.11h3.8
				c0.07-1-0.68-1.87-1.68-1.95c-0.06,0-0.12-0.01-0.18,0c-1.06-0.01-1.94,0.84-1.95,1.9C169.87,20.07,169.87,20.09,169.87,20.11
				L169.87,20.11z"/>
		</g>
	</g>
</g>
</svg>
