<?xml version="1.0" encoding="utf-8"?>
<!-- Generator: Adobe Illustrator 24.0.1, SVG Export Plug-In . SVG Version: 6.00 Build 0)  -->
<svg version="1.1" id="レイヤー_1" xmlns="http://www.w3.org/2000/svg" xmlns:xlink="http://www.w3.org/1999/xlink" x="0px"
	 y="0px" viewBox="0 0 512 512" style="enable-background:new 0 0 512 512;" xml:space="preserve">
<style type="text/css">
	.st0{fill:#FFFFFF;}
</style>
<g id="Logo__x2014__FIXED">
	<g>
		<path class="st0" d="M160.32,464.29c193.17,0,298.86-160.19,298.86-298.86c0-4.51,0-9.01-0.2-13.52
			c20.48-14.75,38.31-33.39,52.44-54.49c-18.85,8.4-39.12,13.93-60.43,16.59c21.71-12.91,38.31-33.59,46.29-58.18
			C477,67.92,454.47,76.53,430.5,81.24c-19.26-20.48-46.5-33.18-76.61-33.18c-57.97,0-105.08,47.11-105.08,105.08
			c0,8.19,1.02,16.18,2.66,23.97c-87.26-4.3-164.69-46.29-216.52-109.8c-9.01,15.57-14.13,33.59-14.13,52.85
			c0,36.46,18.64,68.62,46.7,87.47c-17.21-0.61-33.39-5.33-47.52-13.11c0,0.41,0,0.82,0,1.43c0,50.8,36.26,93.41,84.19,103.04
			c-8.81,2.46-18.03,3.69-27.65,3.69c-6.76,0-13.31-0.61-19.66-1.84c13.31,41.79,52.23,72.1,98.12,72.92
			c-36.05,28.27-81.32,45.07-130.48,45.07c-8.4,0-16.8-0.41-24.99-1.43C45.81,446.88,101.12,464.29,160.32,464.29"/>
	</g>
</g>
</svg>
