<?xml version="1.0" encoding="utf-8"?>
<!-- Generator: Adobe Illustrator 24.0.1, SVG Export Plug-In . SVG Version: 6.00 Build 0)  -->
<svg version="1.1" id="レイヤー_1" xmlns="http://www.w3.org/2000/svg" xmlns:xlink="http://www.w3.org/1999/xlink" x="0px"
	 y="0px" viewBox="0 0 512 512" style="enable-background:new 0 0 512 512;" xml:space="preserve">
<style type="text/css">
	.st0{fill:#FFFFFF;}
</style>
<g>
	<path class="st0" d="M491.22,227.23l-86.66-49.24L326.55,256l78.01,78.01l86.67-49.24C519.07,268.95,519.07,243.05,491.22,227.23z"
		/>
	<path class="st0" d="M292.58,256L54.98,18.39C53.15,23.32,52,28.99,52,35.65v440.69c0,6.66,1.15,12.33,2.98,17.26L292.58,256z"/>
	<path class="st0" d="M309.57,239.02l73.33-73.33L102.63,6.44C91.03-0.16,80.48-1.4,71.97,1.41L309.57,239.02z"/>
	<path class="st0" d="M309.57,272.99L71.97,510.59c8.51,2.81,19.06,1.57,30.66-5.02l280.26-159.24L309.57,272.99z"/>
</g>
</svg>
