<?xml version="1.0" encoding="utf-8"?>
<!-- Generator: Adobe Illustrator 24.0.1, SVG Export Plug-In . SVG Version: 6.00 Build 0)  -->
<svg version="1.1" id="レイヤー_1" xmlns="http://www.w3.org/2000/svg" xmlns:xlink="http://www.w3.org/1999/xlink" x="0px"
	 y="0px" viewBox="0 0 512 512" style="enable-background:new 0 0 512 512;" xml:space="preserve">
<style type="text/css">
	.st0{fill:#040000;}
</style>
<g id="XMLID_22_">
	<g id="XMLID_23_">
		<path id="XMLID_25_" class="st0" d="M395.4,272.28c-0.59-64.68,52.96-96.15,55.41-97.62c-30.32-44.22-77.33-50.26-93.84-50.73
			c-39.48-4.14-77.76,23.63-97.88,23.63c-20.51,0-51.49-23.21-84.84-22.53c-42.94,0.67-83.13,25.53-105.17,64.14
			c-45.47,78.73-11.55,194.43,32,258.07c21.79,31.16,47.26,65.97,80.59,64.74c32.61-1.35,44.79-20.8,84.16-20.8
			c39,0,50.43,20.8,84.43,20.01c35-0.57,57.04-31.3,78.07-62.76c25.19-35.73,35.3-70.91,35.7-72.71
			C463.22,375.44,396.06,349.82,395.4,272.28z"/>
		<path id="XMLID_24_" class="st0" d="M331.17,82.07C348.7,60.13,360.71,30.29,357.37,0c-25.39,1.13-57.14,17.55-75.42,39.02
			c-16.17,18.9-30.62,49.9-26.89,79.03C283.58,120.17,312.86,103.67,331.17,82.07z"/>
	</g>
</g>
</svg>
