<?xml version="1.0" encoding="utf-8"?>
<!-- Generator: Adobe Illustrator 24.0.1, SVG Export Plug-In . SVG Version: 6.00 Build 0)  -->
<svg version="1.1" id="artwork" xmlns="http://www.w3.org/2000/svg" xmlns:xlink="http://www.w3.org/1999/xlink" x="0px" y="0px"
	 viewBox="0 0 200 59.38" style="enable-background:new 0 0 200 59.38;" xml:space="preserve">
<style type="text/css">
	.st0{fill:#A6A6A6;}
	.st1{fill:#FFFFFF;stroke:#FFFFFF;stroke-width:0.2;stroke-miterlimit:10;}
	.st2{fill:#FFFFFF;}
	.st3{fill:url(#SVGID_1_);}
	.st4{fill:url(#SVGID_2_);}
	.st5{fill:url(#SVGID_3_);}
	.st6{fill:url(#SVGID_4_);}
	.st7{opacity:0.2;enable-background:new    ;}
	.st8{opacity:0.12;enable-background:new    ;}
	.st9{opacity:0.25;fill:#FFFFFF;enable-background:new    ;}
</style>
<g>
	<g>
		<path d="M192.59,59.26H7.41C3.33,59.26,0,55.93,0,51.85V7.41C0,3.33,3.33,0,7.41,0h185.19c4.07,0,7.41,3.33,7.41,7.41v44.44
			C200,55.93,196.67,59.26,192.59,59.26z"/>
	</g>
	<g>
		<g>
			<path class="st0" d="M192.59,1.19c3.44,0,6.22,2.79,6.22,6.22v44.44c0,3.44-2.79,6.22-6.22,6.22H7.41
				c-3.44,0-6.22-2.79-6.22-6.22V7.41c0-3.44,2.79-6.22,6.22-6.22L192.59,1.19 M192.59,0H7.41C3.33,0,0,3.33,0,7.41v44.44
				c0,4.07,3.33,7.41,7.41,7.41h185.19c4.07,0,7.41-3.33,7.41-7.41V7.41C200,3.33,196.67,0,192.59,0L192.59,0z"/>
		</g>
	</g>
	<g>
		<path class="st1" d="M70.25,15.17c0,1.24-0.37,2.24-1.11,2.96c-0.83,0.87-1.93,1.32-3.26,1.32c-1.29,0-2.37-0.44-3.27-1.33
			c-0.9-0.89-1.35-2-1.35-3.3c0-1.32,0.44-2.41,1.35-3.3c0.9-0.89,1.99-1.33,3.27-1.33c0.64,0,1.24,0.12,1.82,0.37
			c0.58,0.25,1.04,0.58,1.39,0.99l-0.79,0.79c-0.59-0.7-1.39-1.05-2.43-1.05c-0.93,0-1.75,0.33-2.43,0.99
			c-0.68,0.65-1.02,1.51-1.02,2.56s0.34,1.91,1.02,2.56c0.68,0.65,1.5,0.99,2.43,0.99c0.99,0,1.82-0.33,2.49-0.99
			c0.43-0.43,0.68-1.04,0.74-1.81h-3.23V14.5h4.31C70.22,14.74,70.25,14.96,70.25,15.17z"/>
		<path class="st1" d="M77.08,11.47h-4.04v2.81h3.64v1.07h-3.64v2.81h4.04v1.1H71.9v-8.89h5.19V11.47z"/>
		<path class="st1" d="M81.9,19.26h-1.14v-7.79h-2.49v-1.1h6.1v1.1h-2.49v7.79H81.9z"/>
		<path class="st1" d="M88.8,19.26v-8.89h1.14v8.89H88.8z"/>
		<path class="st1" d="M95.01,19.26h-1.14v-7.79h-2.49v-1.1h6.1v1.1h-2.49v7.79H95.01z"/>
		<path class="st1" d="M109.05,18.1c-0.87,0.9-1.96,1.35-3.26,1.35c-1.3,0-2.39-0.44-3.26-1.35c-0.87-0.9-1.3-2-1.3-3.29
			s0.43-2.4,1.3-3.29c0.87-0.9,1.96-1.35,3.26-1.35c1.29,0,2.37,0.44,3.26,1.35c0.87,0.9,1.32,2,1.32,3.29
			C110.36,16.1,109.93,17.21,109.05,18.1z M103.38,17.36c0.65,0.67,1.47,0.99,2.41,0.99c0.95,0,1.76-0.33,2.41-0.99
			c0.65-0.67,0.99-1.51,0.99-2.55s-0.33-1.88-0.99-2.55c-0.65-0.67-1.47-0.99-2.41-0.99c-0.95,0-1.76,0.33-2.41,0.99
			c-0.65,0.67-0.99,1.51-0.99,2.55S102.73,16.7,103.38,17.36z"/>
		<path class="st1" d="M111.97,19.26v-8.89h1.39l4.33,6.92h0.04l-0.04-1.72v-5.2h1.14v8.89h-1.19l-4.52-7.24h-0.04l0.04,1.72v5.54
			h-1.16V19.26z"/>
	</g>
	<path class="st2" d="M100.95,32.22c-3.48,0-6.33,2.65-6.33,6.3c0,3.63,2.84,6.3,6.33,6.3c3.48,0,6.33-2.67,6.33-6.3
		C107.27,34.87,104.43,32.22,100.95,32.22z M100.95,42.34c-1.91,0-3.56-1.57-3.56-3.82c0-2.27,1.64-3.82,3.56-3.82
		c1.91,0,3.56,1.56,3.56,3.82C104.5,40.77,102.84,42.34,100.95,42.34z M87.14,32.22c-3.48,0-6.33,2.65-6.33,6.3
		c0,3.63,2.84,6.3,6.33,6.3s6.33-2.67,6.33-6.3C93.47,34.87,90.62,32.22,87.14,32.22z M87.14,42.34c-1.91,0-3.56-1.57-3.56-3.82
		c0-2.27,1.64-3.82,3.56-3.82s3.56,1.56,3.56,3.82C90.7,40.77,89.05,42.34,87.14,42.34z M70.73,34.15v2.67h6.4
		c-0.19,1.5-0.7,2.61-1.45,3.36c-0.93,0.93-2.39,1.96-4.93,1.96c-3.94,0-7.02-3.17-7.02-7.11s3.08-7.11,7.02-7.11
		c2.12,0,3.67,0.83,4.81,1.91l1.88-1.88c-1.6-1.53-3.72-2.7-6.71-2.7c-5.39,0-9.93,4.39-9.93,9.79c0,5.39,4.53,9.79,9.93,9.79
		c2.92,0,5.11-0.95,6.83-2.74c1.76-1.76,2.31-4.25,2.31-6.25c0-0.62-0.04-1.2-0.15-1.67h-8.99V34.15z M137.85,36.24
		c-0.52-1.41-2.12-4.01-5.39-4.01c-3.24,0-5.94,2.55-5.94,6.3c0,3.53,2.67,6.3,6.25,6.3c2.89,0,4.56-1.76,5.24-2.79l-2.15-1.44
		c-0.71,1.05-1.69,1.75-3.1,1.75s-2.41-0.64-3.05-1.91l8.43-3.48L137.85,36.24z M129.26,38.33c-0.07-2.43,1.88-3.67,3.29-3.67
		c1.1,0,2.03,0.55,2.34,1.33L129.26,38.33z M122.41,44.44h2.77V25.93h-2.77V44.44z M117.88,33.63h-0.1
		c-0.62-0.74-1.81-1.41-3.32-1.41c-3.16,0-6.04,2.77-6.04,6.33c0,3.53,2.89,6.28,6.04,6.28c1.5,0,2.7-0.67,3.32-1.44h0.09v0.9
		c0,2.41-1.29,3.7-3.36,3.7c-1.69,0-2.74-1.21-3.17-2.24l-2.41,1.01c0.7,1.67,2.53,3.72,5.59,3.72c3.24,0,5.99-1.91,5.99-6.56V32.61
		h-2.62v1.02H117.88z M114.7,42.34c-1.91,0-3.51-1.6-3.51-3.79c0-2.22,1.6-3.84,3.51-3.84c1.88,0,3.36,1.63,3.36,3.84
		C118.07,40.74,116.59,42.34,114.7,42.34z M150.83,25.93h-6.62v18.52h2.77v-7.02h3.87c3.07,0,6.07-2.22,6.07-5.75
		S153.88,25.93,150.83,25.93z M150.89,34.84h-3.93v-6.36h3.93c2.07,0,3.24,1.72,3.24,3.17S152.96,34.84,150.89,34.84z M167.99,32.19
		c-2,0-4.07,0.89-4.93,2.83l2.46,1.02c0.52-1.02,1.5-1.36,2.52-1.36c1.44,0,2.89,0.86,2.9,2.39v0.19c-0.5-0.28-1.57-0.71-2.89-0.71
		c-2.65,0-5.33,1.45-5.33,4.16c0,2.47,2.16,4.07,4.59,4.07c1.85,0,2.89-0.83,3.53-1.81h0.09v1.44h2.67v-7.1
		C173.6,34.01,171.14,32.19,167.99,32.19z M167.64,42.34c-0.9,0-2.16-0.46-2.16-1.57c0-1.42,1.57-1.97,2.93-1.97
		c1.21,0,1.79,0.27,2.52,0.62C170.73,41.13,169.24,42.34,167.64,42.34z M183.32,32.59l-3.17,8.03h-0.09l-3.29-8.03h-2.98l4.93,11.23
		l-2.81,6.24h2.89l7.6-17.47C186.4,32.59,183.32,32.59,183.32,32.59z M158.43,44.44h2.77V25.93h-2.77V44.44z"/>
	<g>
		
			<linearGradient id="SVGID_1_" gradientUnits="userSpaceOnUse" x1="32.2941" y1="322.8985" x2="7.4313" y2="347.7613" gradientTransform="matrix(1 0 0 1 0 -310)">
			<stop  offset="0" style="stop-color:#00A0FF"/>
			<stop  offset="6.574450e-03" style="stop-color:#00A1FF"/>
			<stop  offset="0.2601" style="stop-color:#00BEFF"/>
			<stop  offset="0.5122" style="stop-color:#00D2FF"/>
			<stop  offset="0.7604" style="stop-color:#00DFFF"/>
			<stop  offset="1" style="stop-color:#00E3FF"/>
		</linearGradient>
		<path class="st3" d="M15.47,11.17c-0.43,0.46-0.68,1.17-0.68,2.07v32.77c0,0.92,0.25,1.63,0.68,2.07l0.1,0.1l18.36-18.36v-0.22
			v-0.22L15.57,11.05L15.47,11.17z"/>
		
			<linearGradient id="SVGID_2_" gradientUnits="userSpaceOnUse" x1="50.1249" y1="339.6296" x2="14.2776" y2="339.6296" gradientTransform="matrix(1 0 0 1 0 -310)">
			<stop  offset="0" style="stop-color:#FFE000"/>
			<stop  offset="0.4087" style="stop-color:#FFBD00"/>
			<stop  offset="0.7754" style="stop-color:#FFA500"/>
			<stop  offset="1" style="stop-color:#FF9C00"/>
		</linearGradient>
		<path class="st4" d="M40.04,35.97l-6.12-6.12v-0.22v-0.22l6.12-6.12l0.13,0.07l7.24,4.12c2.07,1.17,2.07,3.1,0,4.28l-7.24,4.12
			L40.04,35.97z"/>
		
			<linearGradient id="SVGID_3_" gradientUnits="userSpaceOnUse" x1="36.78" y1="343.0274" x2="3.064" y2="376.7434" gradientTransform="matrix(1 0 0 1 0 -310)">
			<stop  offset="0" style="stop-color:#FF3A44"/>
			<stop  offset="1" style="stop-color:#C31162"/>
		</linearGradient>
		<path class="st5" d="M40.18,35.88l-6.25-6.25L15.47,48.09c0.68,0.73,1.81,0.81,3.08,0.09L40.18,35.88"/>
		
			<linearGradient id="SVGID_4_" gradientUnits="userSpaceOnUse" x1="10.8119" y1="310.2566" x2="25.8676" y2="325.3121" gradientTransform="matrix(1 0 0 1 0 -310)">
			<stop  offset="0" style="stop-color:#32A071"/>
			<stop  offset="0.0685" style="stop-color:#2DA771"/>
			<stop  offset="0.4762" style="stop-color:#15CF74"/>
			<stop  offset="0.8009" style="stop-color:#06E775"/>
			<stop  offset="1" style="stop-color:#00F076"/>
		</linearGradient>
		<path class="st6" d="M40.18,23.36l-21.64-12.3c-1.27-0.73-2.4-0.64-3.08,0.09l18.47,18.47L40.18,23.36z"/>
		<g>
			<path class="st7" d="M40.04,35.75L18.53,47.97c-1.2,0.68-2.28,0.64-2.96,0.01l0,0l-0.1,0.1l0,0l0.1,0.1l0,0
				c0.7,0.62,1.76,0.67,2.96-0.01l21.64-12.3L40.04,35.75z"/>
			<path class="st8" d="M15.47,47.88c-0.43-0.46-0.68-1.17-0.68-2.07v0.22c0,0.92,0.25,1.63,0.68,2.07l0.1-0.1L15.47,47.88z"/>
		</g>
		<path class="st8" d="M47.42,31.56l-7.39,4.19l0.13,0.13l7.24-4.12c1.04-0.59,1.56-1.36,1.56-2.13l0,0
			C48.89,30.33,48.37,31.02,47.42,31.56z"/>
		<path class="st9" d="M18.53,11.29L47.42,27.7c0.93,0.53,1.47,1.21,1.56,1.93l0,0c0-0.77-0.52-1.56-1.56-2.13L18.53,11.07
			c-2.07-1.17-3.76-0.19-3.76,2.18v0.22C14.77,11.1,16.47,10.12,18.53,11.29z"/>
	</g>
</g>
</svg>
