<?xml version="1.0" encoding="utf-8"?>
<!-- Generator: Adobe Illustrator 24.0.1, SVG Export Plug-In . SVG Version: 6.00 Build 0)  -->
<svg version="1.1" id="レイヤー_1" xmlns="http://www.w3.org/2000/svg" xmlns:xlink="http://www.w3.org/1999/xlink" x="0px"
	 y="0px" viewBox="0 0 669.19 50.79" style="enable-background:new 0 0 669.19 50.79;" xml:space="preserve">
<style type="text/css">
	.st0{fill:#000002;}
</style>
<g>
	<rect x="162.32" y="30.49" class="st0" width="10.14" height="10.16"/>
	<rect x="81.15" y="40.63" class="st0" width="20.29" height="10.15"/>
	<rect x="142.02" y="40.63" class="st0" width="20.29" height="10.15"/>
	<path class="st0" d="M537.67,20.36V10.2h10.15v10.16H537.67z M557.96,0.07h-30.43V10.2h-10.15v40.59h20.29v-20.3h10.15v20.3h20.29
		V10.2h-10.15V0.07z"/>
	<path class="st0" d="M608.68,20.36V10.2h10.15v10.16H608.68z M639.12,20.36V10.2h-10.15V0.05h-40.57v50.74h20.29V30.51h10.15v20.28
		h20.29V30.51h-10.15V20.36H639.12z"/>
	<rect x="71" y="10.21" class="st0" width="10.15" height="30.43"/>
	<rect x="101.44" y="10.21" class="st0" width="10.13" height="30.43"/>
	<rect x="131.88" y="10.21" class="st0" width="10.15" height="30.43"/>
	<polygon class="st0" points="223.18,20.36 202.88,20.36 202.88,10.2 192.74,10.2 192.74,50.79 202.88,50.79 202.88,30.5 
		223.18,30.5 223.18,50.79 233.32,50.79 233.32,10.2 223.18,10.2 	"/>
	<polygon class="st0" points="263.76,0.07 253.62,0.07 253.62,50.79 284.05,50.79 284.05,40.63 263.76,40.63 	"/>
	<polygon class="st0" points="405.79,0.07 405.79,20.36 395.65,20.36 395.65,10.2 385.49,10.2 385.49,0.07 365.22,0.07 
		365.22,50.79 385.49,50.79 385.49,30.49 395.65,30.49 395.65,40.63 405.79,40.63 405.79,50.79 426.09,50.79 426.09,0.07 	"/>
	<polygon class="st0" points="304.34,0.07 304.34,50.79 344.93,50.79 344.93,40.63 324.63,40.63 324.63,30.49 344.93,30.49 
		344.93,20.36 324.63,20.36 324.63,10.2 344.93,10.2 344.93,0.07 	"/>
	<rect x="162.32" y="10.21" class="st0" width="10.14" height="10.15"/>
	<rect x="81.15" y="0.05" class="st0" width="20.29" height="10.16"/>
	<rect x="142.02" y="0.05" class="st0" width="20.29" height="10.16"/>
	<rect x="202.89" y="0.05" class="st0" width="20.28" height="10.16"/>
	<path class="st0" d="M466.65,40.63V10.2h10.15v30.43H466.65z M486.94,0.07h-40.57v50.73h40.57V40.63h10.15V10.2h-10.15V0.07z"/>
	<rect y="0.07" class="st0" width="10.13" height="20.29"/>
	<rect x="10.13" y="20.36" class="st0" width="10.15" height="20.29"/>
	<rect x="30.41" y="20.36" class="st0" width="10.15" height="20.29"/>
	<rect x="20.28" y="40.63" class="st0" width="10.15" height="10.15"/>
	<rect x="40.56" y="0.07" class="st0" width="10.16" height="20.29"/>
</g>
<g>
	<path class="st0" d="M649.39,0h8.17v1.53h-3.21v8.57h-1.77V1.53h-3.2V0z"/>
	<path class="st0" d="M658.71,0h2.49l2.79,7.91h0.03L666.73,0h2.46v10.1h-1.68V2.31h-0.03l-2.8,7.79h-1.46l-2.8-7.79h-0.03v7.79
		h-1.68V0z"/>
</g>
</svg>
